<svg width="30" height="30" viewBox="0 0 30 30" fill="none" xmlns="http://www.w3.org/2000/svg">
<circle cx="15" cy="15" r="14.7" stroke="#DBB454" stroke-width="0.6"/>
<g clip-path="url(#clip0_1_417)">
<path d="M21.5002 9.15002H8.50021C7.78321 9.15002 7.2002 9.73304 7.2002 10.45V19.55C7.2002 20.267 7.78321 20.85 8.50021 20.85H21.5002C22.2172 20.85 22.8002 20.267 22.8002 19.55V10.45C22.8002 9.73304 22.2172 9.15002 21.5002 9.15002ZM8.50021 9.80001H21.5002C21.5481 9.80001 21.5903 9.81747 21.6353 9.82734C20.5098 10.8574 16.7778 14.2715 15.4719 15.4482C15.3697 15.5402 15.2049 15.65 15.0002 15.65C14.7955 15.65 14.6308 15.5402 14.5283 15.4479C13.2224 14.2714 9.49026 10.8571 8.36495 9.82741C8.40999 9.81753 8.45228 9.80001 8.50021 9.80001ZM7.85019 19.55V10.45C7.85019 10.3864 7.86938 10.3286 7.88656 10.2704C8.74798 11.0588 11.352 13.441 13.0404 14.9764C11.3574 16.422 8.75279 18.8915 7.88452 19.7194C7.8692 19.6642 7.85019 19.6101 7.85019 19.55ZM21.5002 20.2H8.50021C8.44829 20.2 8.40213 20.1819 8.35365 20.1704C9.25086 19.315 11.8721 16.8314 13.5255 15.417C13.741 15.6125 13.9379 15.7907 14.0931 15.9306C14.361 16.1725 14.6745 16.3 15.0002 16.3C15.3258 16.3 15.6394 16.1724 15.9069 15.9309C16.0622 15.791 16.2593 15.6126 16.4749 15.417C18.1284 16.8313 20.7493 19.3147 21.6467 20.1704C21.5983 20.1819 21.5522 20.2 21.5002 20.2ZM22.1502 19.55C22.1502 19.6101 22.1312 19.6642 22.1159 19.7194C21.2473 18.891 18.6429 16.4219 16.96 14.9764C18.6485 13.441 21.2521 11.059 22.1138 10.2703C22.131 10.3285 22.1502 10.3863 22.1502 10.45V19.55Z" fill="#DBB454"/>
</g>
<defs>
<clipPath id="clip0_1_417">
<rect width="15.6" height="15.6" fill="white" transform="translate(7.2002 7.20007)"/>
</clipPath>
</defs>
</svg>
