<svg width="30" height="30" viewBox="0 0 30 30" fill="none" xmlns="http://www.w3.org/2000/svg">
<circle cx="15" cy="15" r="14.7" stroke="#DBB454" stroke-width="0.6"/>
<g clip-path="url(#clip0_1_397)">
<path d="M15.0009 6.6001C11.5789 6.6001 8.79492 9.38404 8.79492 12.8061C8.79492 13.9327 9.30016 15.1443 9.32134 15.1954C9.48452 15.5827 9.8065 16.1843 10.0387 16.537L14.2938 22.9843C14.4679 23.2486 14.7257 23.4001 15.0009 23.4001C15.2762 23.4001 15.5339 23.2486 15.708 22.9847L19.9635 16.537C20.1961 16.1843 20.5177 15.5827 20.6809 15.1954C20.702 15.1447 21.2069 13.933 21.2069 12.8061C21.2069 9.38404 18.423 6.6001 15.0009 6.6001ZM20.0077 14.9121C19.862 15.2593 19.5623 15.8189 19.3539 16.1351L15.0984 22.5827C15.0144 22.7101 14.9878 22.7101 14.9038 22.5827L10.6483 16.1351C10.4399 15.8189 10.1402 15.2589 9.9945 14.9118C9.9883 14.8968 9.52504 13.7815 9.52504 12.8061C9.52504 9.78669 11.9815 7.33021 15.0009 7.33021C18.0203 7.33021 20.4768 9.78669 20.4768 12.8061C20.4768 13.783 20.0124 14.9012 20.0077 14.9121Z" fill="#DBB454"/>
<path d="M15.0004 9.52087C13.1886 9.52087 11.7148 10.995 11.7148 12.8064C11.7148 14.6178 13.1886 16.0919 15.0004 16.0919C16.8122 16.0919 18.2859 14.6178 18.2859 12.8064C18.2859 10.995 16.8122 9.52087 15.0004 9.52087ZM15.0004 15.3618C13.5916 15.3618 12.445 14.2155 12.445 12.8064C12.445 11.3973 13.5916 10.251 15.0004 10.251C16.4091 10.251 17.5558 11.3973 17.5558 12.8064C17.5558 14.2155 16.4091 15.3618 15.0004 15.3618Z" fill="#DBB454"/>
</g>
<defs>
<clipPath id="clip0_1_397">
<rect width="16.8" height="16.8" fill="white" transform="translate(6.59961 6.6001)"/>
</clipPath>
</defs>
</svg>
