<svg width="18" height="18" viewBox="0 0 18 18" fill="none" xmlns="http://www.w3.org/2000/svg">
<path d="M1.03125 4.93638H9.6811C9.91969 5.9004 10.7917 6.61735 11.8284 6.61735C12.8651 6.61735 13.7372 5.9004 13.9758 4.93638H16.9688C17.2621 4.93638 17.5 4.69851 17.5 4.40513C17.5 4.11175 17.2621 3.87388 16.9688 3.87388H13.9758C13.7372 2.90986 12.8651 2.19287 11.8284 2.19287C10.7917 2.19287 9.91963 2.90986 9.68106 3.87388H1.03125C0.737867 3.87388 0.5 4.11175 0.5 4.40513C0.5 4.69851 0.737867 4.93638 1.03125 4.93638ZM11.8284 3.25537C12.4624 3.25537 12.9782 3.77115 12.9782 4.4051C12.9782 5.03908 12.4624 5.55485 11.8284 5.55485C11.1945 5.55485 10.6787 5.03908 10.6787 4.4051C10.6787 3.77115 11.1945 3.25537 11.8284 3.25537ZM1.03125 9.53129H4.02425C4.26284 10.4953 5.13486 11.2123 6.17159 11.2123C7.20833 11.2123 8.08034 10.4953 8.31894 9.53129H16.9688C17.2621 9.53129 17.5 9.29343 17.5 9.00004C17.5 8.70666 17.2621 8.46879 16.9688 8.46879H8.3189C8.08031 7.50477 7.20829 6.78779 6.17156 6.78779C5.13482 6.78779 4.26281 7.50477 4.02421 8.46879H1.03125C0.737867 8.46879 0.5 8.70666 0.5 9.00004C0.5 9.29343 0.737834 9.53129 1.03125 9.53129ZM6.17156 7.85029C6.80554 7.85029 7.32132 8.36606 7.32132 9.00004C7.32132 9.63399 6.80554 10.1498 6.17156 10.1498C5.53758 10.1498 5.0218 9.63399 5.0218 9.00004C5.0218 8.36606 5.53758 7.85029 6.17156 7.85029ZM16.9688 13.0637H13.9758C13.7372 12.0997 12.8651 11.3827 11.8284 11.3827C10.7917 11.3827 9.91966 12.0997 9.68106 13.0637H1.03125C0.737867 13.0637 0.5 13.3016 0.5 13.595C0.5 13.8883 0.737867 14.1262 1.03125 14.1262H9.6811C9.91969 15.0902 10.7917 15.8072 11.8284 15.8072C12.8652 15.8072 13.7372 15.0902 13.9758 14.1262H16.9688C17.2621 14.1262 17.5 13.8883 17.5 13.595C17.5 13.3016 17.2622 13.0637 16.9688 13.0637ZM11.8284 14.7447C11.1945 14.7447 10.6787 14.2289 10.6787 13.595C10.6787 12.961 11.1945 12.4452 11.8284 12.4452C12.4624 12.4452 12.9782 12.961 12.9782 13.595C12.9782 14.2289 12.4624 14.7447 11.8284 14.7447Z" fill="white"/>
</svg>
