<svg width="30" height="30" viewBox="0 0 30 30" fill="none" xmlns="http://www.w3.org/2000/svg">
<circle cx="15" cy="15" r="14.7" stroke="#DBB454" stroke-width="0.6"/>
<path d="M22.1435 19.1337C22.0556 18.7048 21.7726 18.3214 21.3672 18.0818C20.6163 17.6384 19.8408 17.2141 19.0908 16.8038L18.5758 16.5217C17.9245 16.1644 17.4768 16.2308 17.2155 16.3496C16.9668 16.463 16.6401 16.736 16.4968 17.3936C16.4948 17.4035 16.4933 17.4151 16.4922 17.4273C16.4467 17.5975 16.3217 17.6663 16.2493 17.6924C16.0838 17.7519 15.8881 17.7128 15.7275 17.5868C14.4754 16.6005 13.3917 15.5221 12.4143 14.2897C12.2895 14.1328 12.2506 13.941 12.31 13.7764C12.3376 13.6994 12.4129 13.5643 12.6212 13.5198C12.6215 13.5198 12.6215 13.5198 12.6217 13.5197C12.6317 13.5185 12.642 13.5169 12.6519 13.5147C13.3184 13.3673 13.5836 13.0251 13.6887 12.7639C13.8074 12.47 13.8472 11.9672 13.3641 11.2417C13.0006 10.6978 12.697 10.1035 12.4032 9.52869C12.2696 9.26722 12.136 9.00604 11.9968 8.74837C11.7209 8.23714 11.3529 7.91883 10.9325 7.82772C10.5519 7.74451 10.1506 7.85423 9.7697 8.14251C9.39206 8.43094 8.99099 8.74793 8.61364 9.11224C7.80007 9.90443 7.61433 10.9062 8.07575 12.0093C10.036 16.696 13.4122 20.0482 18.1108 21.9727C18.4794 22.1242 18.8371 22.1992 19.1793 22.1992C19.798 22.1992 20.3664 21.9536 20.8568 21.4679C21.2573 21.0739 21.608 20.6203 21.9077 20.2231C22.1391 19.9076 22.2226 19.5205 22.1435 19.1337ZM21.4263 19.8651C21.1419 20.2421 20.8073 20.6748 20.4352 21.0408C19.8408 21.6296 19.1552 21.7535 18.3384 21.4175C13.7925 19.5555 10.5259 16.3122 8.62946 11.7777C8.26062 10.8964 8.39245 10.1652 9.03112 9.54305C9.38562 9.20086 9.77058 8.89691 10.1333 8.62005C10.3255 8.4743 10.5092 8.40076 10.6811 8.40076C10.7233 8.40076 10.7646 8.40516 10.8053 8.41409C11.0491 8.46698 11.2788 8.68114 11.4689 9.03343C11.606 9.28714 11.7373 9.54422 11.8688 9.80174C12.1706 10.3919 12.4823 11.0022 12.8652 11.5746C13.1286 11.9706 13.2235 12.3132 13.1324 12.5397C13.0436 12.7597 12.7761 12.8682 12.5547 12.9214C12.5122 12.9243 12.4838 12.9345 12.4797 12.9371C12.1325 13.01 11.865 13.2418 11.7455 13.573C11.6151 13.9345 11.6895 14.342 11.9444 14.6628C12.951 15.932 14.067 17.0426 15.3566 18.0586C15.6815 18.3135 16.0911 18.3872 16.4529 18.2568C16.7796 18.1389 17.0095 17.8749 17.084 17.5326C17.0863 17.5221 17.0878 17.5095 17.0889 17.4964C17.1408 17.2716 17.2477 16.9943 17.4642 16.8957C17.7103 16.7839 18.0478 16.9163 18.2872 17.0477L18.8028 17.3302C19.5484 17.7381 20.3198 18.16 21.0619 18.5983C21.3217 18.7519 21.5016 18.991 21.5555 19.2541C21.6007 19.4729 21.5538 19.691 21.4263 19.8651Z" fill="#DBB454"/>
</svg>
