<svg width="70" height="70" viewBox="0 0 70 70" fill="none" xmlns="http://www.w3.org/2000/svg">
<path d="M17.28 21.9617C16.2006 21.9617 15.3138 22.8538 15.3138 23.9331C15.3143 31.3697 15.3127 38.8064 15.3125 46.243C15.3125 46.6054 15.6063 46.8992 15.9688 46.8992H19.3051C19.6268 49.1186 21.5397 50.838 23.845 50.838C26.1503 50.838 28.062 49.1186 28.3837 46.8992H40.9062C41.7933 46.9116 41.7933 45.5746 40.9062 45.5867H28.3849C28.065 43.3662 26.1517 41.6492 23.845 41.6492C22.5989 41.6492 21.467 42.1511 20.6381 42.9618H16.6263C16.6263 36.6189 16.6263 30.276 16.6263 23.9331C16.6263 23.5582 16.905 23.2743 17.28 23.2743H40.905C41.2799 23.2743 41.5651 23.5582 41.5651 23.9331V40.9943C41.5452 41.8889 42.8974 41.8889 42.8776 40.9943V28.5256H50.7487C51.1908 28.5256 51.3171 28.9852 51.4319 29.3676L53.375 35.8405V42.9618H50.6757C49.8468 42.1512 48.7161 41.6492 47.47 41.6492C46.2239 41.6492 45.092 42.1511 44.2631 42.9618H29.75C28.8618 42.9494 28.8618 44.2876 29.75 44.2743H43.3275C43.0421 44.8717 42.8776 45.5363 42.8776 46.2404C42.8776 48.7697 44.9407 50.838 47.47 50.838C49.7753 50.838 51.687 49.1185 52.0087 46.8992H54.0312C54.3937 46.8992 54.6875 46.6054 54.6875 46.243V35.743C54.6873 35.6792 54.6778 35.6158 54.6593 35.5545L52.6585 28.8625C52.3272 27.7542 51.6481 27.2117 50.7487 27.2117H42.8776V23.933C42.8776 22.8537 41.9843 21.9617 40.905 21.9617L17.28 21.9617ZM31.72 28.5256L31.7187 31.1467C31.7183 32.0225 33.0316 32.0225 33.0325 31.1467L33.0338 29.8675L37.2084 33.118L33.0338 36.3685V35.0842C33.0324 34.7213 32.7366 34.4285 32.3737 34.4305H20.5638L20.5625 31.8055H29.7474C30.6233 31.8055 30.6233 30.4917 29.7474 30.4917H19.9024C19.5415 30.493 19.2495 30.7857 19.2487 31.1467L19.25 35.0842C19.2486 35.4466 19.5413 35.7415 19.9037 35.743H31.72V37.7105C31.7222 38.2536 32.3455 38.5592 32.7762 38.2283L38.6863 33.6358C39.0248 33.3731 39.0248 32.8617 38.6863 32.5989L32.7762 28.0065C32.4157 27.7264 31.7204 27.8681 31.72 28.5256ZM44.8438 29.8329C44.4793 29.8316 44.1835 30.1273 44.1849 30.4918V34.4305C44.1864 34.793 44.4813 35.0856 44.8438 35.0842H46.5395L47.6584 36.2083C47.7822 36.3308 47.9496 36.399 48.1237 36.398H51.287C51.7261 36.3982 52.0415 35.9755 51.9164 35.5547L50.3424 30.3034C50.26 30.0245 50.0039 29.8329 49.7131 29.8329H44.8438ZM45.4974 31.1454H49.2234L50.4052 35.0842H48.3954L47.2765 33.9652C47.1525 33.8432 46.9851 33.7755 46.8112 33.7768H45.4974V31.1454ZM44.8438 37.7105C43.9497 37.6906 43.9497 39.0423 44.8438 39.023H46.1575C47.0516 39.0428 47.0516 37.6912 46.1575 37.7105H44.8438ZM23.845 42.9618C25.665 42.9618 27.1237 44.4205 27.1237 46.2404C27.1237 48.0604 25.665 49.5256 23.845 49.5256C22.0251 49.5256 20.5651 48.0604 20.5651 46.2404C20.5651 44.4205 22.0251 42.9618 23.845 42.9618ZM47.47 42.9618C49.29 42.9618 50.7487 44.4205 50.7487 46.2404C50.7487 48.0604 49.29 49.5256 47.47 49.5256C45.6501 49.5256 44.1849 48.0604 44.1849 46.2404C44.1849 44.4205 45.6501 42.9618 47.47 42.9618ZM16.625 44.2743H19.7025C19.5073 44.6828 19.3706 45.1232 19.3038 45.5867H16.625V44.2743ZM23.845 44.2743C22.7655 44.2743 21.8725 45.1609 21.8724 46.2404C21.8724 47.3199 22.7655 48.2131 23.845 48.2131C24.9246 48.2131 25.8113 47.32 25.8112 46.2404C25.8112 45.1609 24.9246 44.2743 23.845 44.2743ZM47.47 44.2743C46.3905 44.2743 45.4975 45.1609 45.4974 46.2404C45.4974 47.3199 46.3905 48.2131 47.47 48.2131C48.5496 48.2131 49.4362 47.3199 49.4362 46.2404C49.4362 45.1609 48.5496 44.2743 47.47 44.2743ZM51.6113 44.2743H53.375V45.5867H52.0099C51.9432 45.1232 51.8064 44.6828 51.6113 44.2743ZM23.845 45.5867C24.2152 45.5867 24.4987 45.8702 24.4987 46.2404C24.4987 46.6106 24.2153 46.8992 23.845 46.8992C23.4749 46.8992 23.1849 46.6106 23.1849 46.2404C23.1849 45.8702 23.4748 45.5867 23.845 45.5867ZM47.47 45.5867C47.8402 45.5867 48.1237 45.8702 48.1237 46.2404C48.1237 46.6106 47.8403 46.8992 47.47 46.8992C47.0998 46.8992 46.8112 46.6106 46.8112 46.2404C46.8112 45.8702 47.0999 45.5867 47.47 45.5867Z" fill="#DBB454"/>
<circle opacity="0.5" cx="35" cy="35" r="34.7131" stroke="#DBB454" stroke-width="0.57377"/>
</svg>
