<svg width="100" height="100" viewBox="0 0 100 100" fill="none" xmlns="http://www.w3.org/2000/svg">
<circle opacity="0.5" cx="50" cy="50" r="49.5902" stroke="#DBB454" stroke-width="0.819672"/>
<g clip-path="url(#clip0_34_50)">
<path d="M69.6291 58.2307V65.2855C69.6291 67.0171 68.2253 68.4209 66.4937 68.4209H28.8679C27.1362 68.4209 25.7324 67.0171 25.7324 65.2855V43.3371C25.7324 41.6055 27.1362 40.2017 28.8679 40.2017H66.4937C68.2253 40.2017 69.6291 41.6055 69.6291 43.3371V55.0951" stroke="#DBB454" stroke-width="1.46484" stroke-miterlimit="10" stroke-linecap="round" stroke-linejoin="round"/>
<path d="M28.8047 37.0661C29.3016 36.4665 30.0213 36.0499 30.856 35.9527L68.2291 31.6004C69.9491 31.4002 71.506 32.6321 71.7063 34.3522L74.2451 56.1532C74.4454 57.8732 73.2135 59.43 71.4934 59.6303L69.628 59.8475" stroke="#DBB454" stroke-width="1.46484" stroke-miterlimit="10" stroke-linecap="round" stroke-linejoin="round"/>
<path d="M30.4355 59.0146H36.7065" stroke="#DBB454" stroke-width="1.46484" stroke-miterlimit="10" stroke-linecap="round" stroke-linejoin="round"/>
<path d="M30.4355 62.9336H46.1129" stroke="#DBB454" stroke-width="1.46484" stroke-miterlimit="10" stroke-linecap="round" stroke-linejoin="round"/>
<path d="M39.8418 59.0146H46.1127" stroke="#DBB454" stroke-width="1.46484" stroke-miterlimit="10" stroke-linecap="round" stroke-linejoin="round"/>
<path d="M49.248 59.0146H55.5189" stroke="#DBB454" stroke-width="1.46484" stroke-miterlimit="10" stroke-linecap="round" stroke-linejoin="round"/>
<path d="M58.6562 59.0146H64.9271" stroke="#DBB454" stroke-width="1.46484" stroke-miterlimit="10" stroke-linecap="round" stroke-linejoin="round"/>
<path d="M36.7065 55.0952H32.0033C31.1375 55.0952 30.4355 54.3934 30.4355 53.5274V50.392C30.4355 49.5262 31.1374 48.8242 32.0033 48.8242H36.7065C37.5724 48.8242 38.2743 49.5261 38.2743 50.392V53.5274C38.2742 54.3934 37.5724 55.0952 36.7065 55.0952Z" stroke="#DBB454" stroke-width="1.46484" stroke-miterlimit="10" stroke-linecap="round" stroke-linejoin="round"/>
<path d="M33.5703 51.9595H35.1381" stroke="#DBB454" stroke-width="1.46484" stroke-miterlimit="10" stroke-linecap="round" stroke-linejoin="round"/>
<path d="M62.5234 52.7438C63.0521 51.6812 63.3569 50.4859 63.3569 49.2164C63.3569 47.9469 63.0521 46.7516 62.5234 45.689" stroke="#DBB454" stroke-width="1.46484" stroke-miterlimit="10" stroke-linecap="round" stroke-linejoin="round"/>
<path d="M59.7129 51.3278C60.031 50.6906 60.2221 49.9779 60.2221 49.2159C60.2221 48.4539 60.031 47.7412 59.7129 47.104" stroke="#DBB454" stroke-width="1.46484" stroke-miterlimit="10" stroke-linecap="round" stroke-linejoin="round"/>
<path d="M56.9141 49.9181C57.0218 49.7066 57.0877 49.4704 57.0877 49.2161C57.0877 48.9617 57.0218 48.7256 56.9141 48.5142" stroke="#DBB454" stroke-width="1.46484" stroke-miterlimit="10" stroke-linecap="round" stroke-linejoin="round"/>
</g>
<defs>
<clipPath id="clip0_34_50">
<rect width="50" height="50" fill="white" transform="translate(25 25)"/>
</clipPath>
</defs>
</svg>
