<svg width="100" height="100" viewBox="0 0 100 100" fill="none" xmlns="http://www.w3.org/2000/svg">
<circle opacity="0.5" cx="50" cy="50" r="49.5902" stroke="#DBB454" stroke-width="0.819672"/>
<path fill-rule="evenodd" clip-rule="evenodd" d="M64.5907 74.9989H35.4109C33.8133 74.9989 32.514 73.6993 32.514 72.1015L32.5137 34.8322C32.5137 34.6766 32.5755 34.5278 32.6856 34.4182L41.9312 25.1727C42.0411 25.0628 42.1899 25.001 42.3452 25.001H64.5907C66.1885 25.001 67.4881 26.3006 67.4881 27.8979V72.1015C67.4884 73.6993 66.1885 74.9989 64.5907 74.9989ZM33.6856 35.0747V72.1015C33.6856 73.0527 34.4593 73.8268 35.4109 73.8268H64.5909C65.5422 73.8268 66.316 73.053 66.316 72.1015V27.8979C66.316 26.9466 65.5422 26.1726 64.5909 26.1726H42.5883L33.6856 35.0747Z" fill="#DBB454"/>
<path fill-rule="evenodd" clip-rule="evenodd" d="M42.3455 35.4183H33.1003C32.5805 35.4183 32.3169 34.7864 32.686 34.4184L41.9313 25.1732C42.2986 24.8046 42.9312 25.0671 42.9312 25.5874V34.8327C42.9312 35.1561 42.6687 35.4183 42.3455 35.4183ZM34.5144 34.2464H41.7596V27.0013L34.5144 34.2464Z" fill="#DBB454"/>
<path fill-rule="evenodd" clip-rule="evenodd" d="M57.3369 40.5188C54.9867 40.5188 54.3293 38.0071 55.3963 37.8589C56.1891 37.7487 55.9169 38.6666 56.4378 39.1002C57.3545 39.8628 59.2026 38.9933 58.5065 37.7232C57.9876 36.7767 56.0221 37.4895 55.1558 35.9101C54.4289 34.5847 55.1678 32.5333 57.3293 32.5479C59.7229 32.5643 60.3536 35.0642 59.294 35.2119C58.2158 35.3619 59.1375 33.7139 57.3369 33.7198C55.7525 33.7248 55.4218 35.7199 57.4122 35.9531C60.8652 36.3577 60.3917 40.5188 57.3369 40.5188Z" fill="#DBB454"/>
<path fill-rule="evenodd" clip-rule="evenodd" d="M57.3438 41.4598C57.0203 41.4598 56.7578 41.1973 56.7578 40.8739V32.197C56.7578 31.4259 57.9297 31.4259 57.9297 32.197V40.8739C57.9297 41.1973 57.6672 41.4598 57.3438 41.4598Z" fill="#DBB454"/>
<path fill-rule="evenodd" clip-rule="evenodd" d="M57.3445 43.6105C53.4436 43.6105 50.2695 40.4368 50.2695 36.5356C50.2695 32.6344 53.4436 29.4609 57.3445 29.4609C61.2454 29.4609 64.4191 32.6347 64.4191 36.5356C64.4191 40.4362 61.2454 43.6105 57.3445 43.6105ZM57.3445 30.6328C54.0899 30.6328 51.4417 33.2807 51.4417 36.5356C51.4417 39.7902 54.0899 42.4386 57.3445 42.4386C60.5991 42.4386 63.2466 39.7905 63.2466 36.5356C63.2466 33.2804 60.5991 30.6328 57.3445 30.6328Z" fill="#DBB454"/>
<path fill-rule="evenodd" clip-rule="evenodd" d="M50.0009 42.9189H39.8891C39.1177 42.9189 39.1177 41.7471 39.8891 41.7471H50.0009C50.7723 41.7471 50.7723 42.9189 50.0009 42.9189Z" fill="#DBB454"/>
<path fill-rule="evenodd" clip-rule="evenodd" d="M60.1134 49.0635H39.8891C39.1177 49.0635 39.1177 47.8916 39.8891 47.8916H60.1128C60.8842 47.8916 60.8839 49.0635 60.1134 49.0635Z" fill="#DBB454"/>
<path fill-rule="evenodd" clip-rule="evenodd" d="M60.1132 55.2085H39.8889C39.1178 55.2085 39.1178 54.0366 39.8889 54.0366H60.1126C60.884 54.0366 60.8837 55.2085 60.1132 55.2085Z" fill="#DBB454"/>
<path fill-rule="evenodd" clip-rule="evenodd" d="M60.1132 61.353H39.8889C39.1178 61.353 39.1178 60.1812 39.8889 60.1812H60.1126C60.884 60.1812 60.8837 61.353 60.1132 61.353Z" fill="#DBB454"/>
<path fill-rule="evenodd" clip-rule="evenodd" d="M60.1132 67.4981H39.8889C39.1178 67.4981 39.1178 66.3262 39.8889 66.3262H60.1126C60.884 66.3262 60.8837 67.4981 60.1132 67.4981Z" fill="#DBB454"/>
</svg>
