<svg width="89" height="89" viewBox="0 0 89 89" fill="none" xmlns="http://www.w3.org/2000/svg">
<g clip-path="url(#clip0_1_9938)">
<path d="M68 56.6146C68 63.4439 62.444 69 55.6147 69C48.7854 69 43.2294 63.444 43.2294 56.6147C43.2294 50.0542 48.3569 44.6697 54.8147 44.2559V38.2441C54.8147 36.0385 53.0203 34.2441 50.8147 34.2441H37.2441C35.0385 34.2441 33.2441 36.0385 33.2441 38.2441V51.8147C33.2441 54.0203 35.0385 55.8147 37.2441 55.8147H38.75C39.1918 55.8147 39.55 56.1729 39.55 56.6147C39.55 57.0565 39.1918 57.4147 38.75 57.4147H37.2441C34.1563 57.4147 31.6441 54.9026 31.6441 51.8147V45.7706H23.2C21.4355 45.7706 20 44.3351 20 42.5706V24.2C20 22.4355 21.4355 21 23.2 21H41.5706C43.3351 21 44.7706 22.4355 44.7706 24.2V28.4C44.7706 28.8418 44.4124 29.2 43.9706 29.2C43.5288 29.2 43.1706 28.8418 43.1706 28.4V24.2C43.1706 23.3178 42.4528 22.6 41.5706 22.6H23.2C22.3178 22.6 21.6 23.3178 21.6 24.2V42.5706C21.6 43.4528 22.3178 44.1706 23.2 44.1706H31.6441V38.2441C31.6441 35.1562 34.1563 32.6441 37.2441 32.6441H50.8147C53.9025 32.6441 56.4147 35.1562 56.4147 38.2441V45.0294C56.4147 45.4712 56.0565 45.8294 55.6147 45.8294C49.6677 45.8294 44.8294 50.6677 44.8294 56.6147C44.8294 62.5618 49.6677 67.4001 55.6147 67.4001C61.5617 67.4001 66.4 62.5617 66.4 56.6147C66.4 53.2042 64.8377 50.0667 62.1138 48.0066C61.7614 47.7401 61.6918 47.2383 61.9583 46.886C62.2249 46.5336 62.7265 46.464 63.079 46.7304C66.2063 49.0957 68 52.6983 68 56.6146Z" fill="#DBB454"/>
</g>
<circle opacity="0.5" cx="44.5" cy="44.5" r="44.0902" stroke="#DBB454" stroke-width="0.819672"/>
<defs>
<clipPath id="clip0_1_9938">
<rect width="48" height="48" fill="white" transform="translate(20 21)"/>
</clipPath>
</defs>
</svg>
