<svg width="89" height="89" viewBox="0 0 89 89" fill="none" xmlns="http://www.w3.org/2000/svg">
<path fill-rule="evenodd" clip-rule="evenodd" d="M30.2083 65.8962C29.6445 65.8962 29.1875 65.439 29.1875 64.8753V30.167C29.1875 28.4756 30.5586 27.1045 32.25 27.1045H58.7917C59.2214 27.1045 59.6053 27.3737 59.7515 27.7778C59.8978 28.1819 59.7753 28.6344 59.4452 28.9096L48.1362 38.3337L59.4452 47.7578C59.7753 48.033 59.8978 48.4854 59.7515 48.8895C59.6053 49.2937 59.2214 49.5628 58.7917 49.5628H36.3333C35.7695 49.5628 35.3125 49.1057 35.3125 48.542C35.3125 47.9783 35.7695 47.5212 36.3333 47.5212H55.9721L45.8881 39.1179C45.6554 38.9239 45.5208 38.6366 45.5208 38.3337C45.5208 38.0307 45.6554 37.7434 45.8881 37.5494L55.9721 29.1462H32.25C31.6862 29.1462 31.2292 29.6032 31.2292 30.167V64.8753C31.2292 65.439 30.7721 65.8962 30.2083 65.8962Z" fill="#DBB454"/>
<circle opacity="0.5" cx="44.5" cy="44.5" r="44.0902" stroke="#DBB454" stroke-width="0.819672"/>
</svg>
