<svg width="70" height="70" viewBox="0 0 70 70" fill="none" xmlns="http://www.w3.org/2000/svg">
<g clip-path="url(#clip0_1_500)">
<path d="M44.3135 23.0911C44.0708 22.8537 43.6817 22.858 43.4445 23.1005C43.2071 23.343 43.2114 23.7321 43.4539 23.9695C45.7749 26.2409 47.0674 29.2752 47.093 32.5133C47.144 39.1294 41.6175 44.6991 35.0009 44.6991C32.1859 44.699 29.589 43.7302 27.5295 42.1066C27.7898 42.0352 27.9811 41.7969 27.9811 41.5139V40.3042C28.756 40.3735 29.8574 40.5278 30.3404 40.8987C30.7339 41.2007 31.22 41.3673 31.709 41.3677L40.1014 41.3728C41.5871 41.2343 42.606 39.7023 41.7403 38.3672C42.5888 37.7883 42.8413 36.5103 42.2504 35.653C43.0505 35.058 43.2704 33.8236 42.6983 32.9892C44.1183 31.9408 43.4523 29.4732 41.5447 29.4719L36.2826 29.4687C36.7713 27.7335 36.6975 25.9202 36.063 23.8357C35.4778 21.9134 32.4527 22.3943 32.5583 24.4559C32.6716 26.6622 31.3483 27.5338 29.6729 28.6372C29.1082 29.0092 28.532 29.3887 27.9811 29.8369V28.8165C27.9811 28.477 27.7061 28.202 27.3666 28.202H23.738C25.5153 23.6686 30.0444 20.5541 34.9085 20.5166C37.2314 20.4979 39.4951 21.1446 41.4522 22.3851C41.739 22.5668 42.1185 22.4818 42.3003 22.1951C42.4819 21.9084 42.3968 21.5287 42.1102 21.347C39.9825 19.9985 37.5275 19.2872 35.0037 19.2872C27.7183 19.2872 21.6257 25.4255 21.682 32.7107C21.7385 39.9233 27.782 45.9284 35.0009 45.928C42.2953 45.928 48.3783 39.8013 48.322 32.5036C48.2938 28.9358 46.8702 25.5931 44.3135 23.0911ZM27.9815 31.5074C28.6829 30.761 29.5289 30.2039 30.3489 29.6638C32.1119 28.5025 33.935 27.3018 33.7857 24.393C33.7562 23.8189 34.6732 23.4909 34.8872 24.1938C35.5396 26.3372 35.5298 28.1374 34.8562 29.8588C34.7517 30.3396 34.9423 30.6191 35.4281 30.6973L41.5439 30.701C41.9407 30.7012 42.2633 31.0243 42.2631 31.421C42.2628 31.8177 41.9401 32.1402 41.5435 32.1402H41.5431L39.8834 32.1391H39.883C39.5438 32.1391 39.2688 32.414 39.2685 32.7532C39.2683 33.0927 39.5433 33.3679 39.8826 33.3681L41.0978 33.369C41.4912 33.3731 41.8099 33.6946 41.8096 34.089C41.8094 34.4856 41.4865 34.8081 41.09 34.8081H41.0896L39.8816 34.8074H39.8812C39.542 34.8074 39.2669 35.0823 39.2667 35.4215C39.2666 35.7609 39.5415 36.0361 39.8808 36.0364L40.6543 36.0369C41.0469 36.0419 41.3647 36.3631 41.3644 36.7569C41.3642 37.1535 41.0413 37.476 40.6448 37.476H40.6444L39.4365 37.4753H39.4361C39.0969 37.4753 38.8218 37.7502 38.8216 38.0894C38.8213 38.4288 39.0964 38.704 39.4356 38.7043L40.1028 38.7047C40.5413 38.7462 40.781 38.9861 40.8219 39.4247C40.8216 39.8511 40.4694 40.0865 40.1019 40.1438L31.7094 40.1388C31.4893 40.1386 31.2688 40.0624 31.0885 39.9239C30.3692 39.3718 29.1641 39.1688 27.9811 39.0711V31.5074H27.9815ZM23.3317 29.4311H26.7521V40.8994H26.2102C24.1871 38.7558 22.936 35.8741 22.9111 32.7013C22.9024 31.5818 23.0459 30.4839 23.3317 29.4311Z" fill="#DBB454"/>
<path d="M52.3088 31.221L50.3339 28.4099C50.1388 28.1322 50.0385 27.8059 50.0438 27.4665L50.0983 24.0314C50.1179 22.8035 49.3503 21.711 48.1885 21.313L44.9384 20.1998C44.6187 20.0902 44.347 19.8866 44.1521 19.6109L42.1812 16.701C41.4732 15.777 40.1635 15.2385 39.0156 15.6211L35.7397 16.7312C35.4178 16.8286 35.0794 16.8224 34.7659 16.715L31.4618 15.5501C30.3146 15.1572 28.9987 15.5528 28.2791 16.5364L26.2686 19.3277C26.0651 19.5967 25.7871 19.7913 25.4643 19.8906L22.1806 20.9002C21.0067 21.2612 20.2049 22.3287 20.1854 23.5566L20.1308 26.9916C20.1254 27.3311 20.0148 27.6539 19.8109 27.9254L17.7478 30.6723C17.0102 31.6542 16.989 32.9892 17.695 33.9941L19.6699 36.8053C19.8651 37.083 19.9654 37.4092 19.96 37.7487L19.9055 41.1837C19.886 42.4117 20.6535 43.5042 21.8153 43.9021L25.0654 45.0155C25.4548 45.1718 25.75 45.4175 25.9513 45.7524L25.0941 47.2372C24.9243 47.5311 25.0251 47.9069 25.319 48.0766C25.6297 48.2376 25.9095 48.1626 26.1584 47.8517L26.7146 46.8884L27.8212 48.5353C28.4545 49.4853 29.8994 49.993 30.9916 49.6159L32.9217 48.9483L29.1486 55.484L27.6241 52.4003C27.5141 52.178 27.2827 52.0435 27.0337 52.0595L23.601 52.2806L24.8171 50.1745C24.9868 49.8806 24.8862 49.5048 24.5922 49.3351C24.2983 49.1654 23.9225 49.266 23.7528 49.5601L21.9625 52.6603C21.7081 53.1908 21.9232 53.5799 22.5342 53.5807L26.7039 53.3121L28.5559 57.0579C28.775 57.5009 29.3954 57.5149 29.6389 57.0928L34.6473 48.4172C34.9165 48.4139 35.1726 48.4629 35.4158 48.5642L40.3403 57.0928C40.5839 57.5147 41.2042 57.5011 41.4234 57.0579L43.2753 53.3121L47.445 53.5807C48.0037 53.6107 48.2803 53.1702 48.0166 52.6602L46.2313 49.5687C46.0616 49.2749 45.6859 49.1743 45.3918 49.3439C45.0979 49.5137 44.9972 49.8895 45.1669 50.1834L46.3781 52.2804L42.9455 52.0592C42.6987 52.0432 42.4652 52.1777 42.3552 52.4001L40.8305 55.4839L37.2079 49.21C37.8315 49.4962 38.7098 49.8266 39.4114 49.8266C40.2824 49.8266 41.1235 49.4218 41.6718 48.6918L43.148 46.6855L43.8266 47.8612C44.0754 48.1722 44.3552 48.2472 44.666 48.0862C44.96 47.9166 45.0607 47.5408 44.891 47.2468L43.9647 45.6421C44.1308 45.4982 44.3253 45.3902 44.5396 45.3244L47.8234 44.3148C48.9972 43.9539 49.799 42.8863 49.8185 41.6585L49.8731 38.2233C49.8784 37.884 49.989 37.5612 50.193 37.2896L52.2562 34.5427C52.9936 33.5608 53.0149 32.2259 52.3088 31.221ZM51.2733 33.8047L49.2103 36.5516C48.8494 37.032 48.6536 37.6034 48.6442 38.204L48.5896 41.639C48.5785 42.333 48.1256 42.9362 47.4622 43.1401L44.1784 44.1498C43.5162 44.2975 43.0331 44.7306 42.7017 45.2184L40.6856 47.9586C40.2698 48.5123 39.5509 48.7345 38.8955 48.5119L35.6507 47.3424C35.0635 47.1379 34.2953 47.1584 33.8749 47.3181L30.6009 48.4505C29.9421 48.6486 29.2354 48.4058 28.8376 47.844L26.8677 44.9121C26.5358 44.4283 26.0679 44.0751 25.4639 43.8526L22.2138 42.7392C21.5573 42.5143 21.1235 41.8969 21.1346 41.203L21.189 37.768C21.1986 37.1673 21.0211 36.5899 20.6758 36.0985L18.7007 33.2875C18.3017 32.7196 18.3137 31.9653 18.7306 31.4103L20.7937 28.6634C21.1544 28.1832 21.3502 27.6118 21.3598 27.0111L21.4143 23.576C21.4254 22.882 21.8784 22.2788 22.5417 22.0749L25.8255 21.0653C26.4353 20.8616 26.9142 20.5236 27.2619 20.0514L29.2724 17.2601C29.6898 16.7085 30.4089 16.4887 31.0584 16.711L34.3624 17.8758C34.9785 18.0737 35.5662 18.0811 36.1254 17.8982L39.4011 16.7881C40.0607 16.5889 40.7688 16.832 41.1667 17.3949L43.1376 20.3048C43.4709 20.7866 43.9384 21.1392 44.5401 21.3624L47.7901 22.4756C48.4467 22.7006 48.8805 23.318 48.8694 24.0119L48.8149 27.4471C48.8054 28.0478 48.9829 28.625 49.3282 29.1165L51.3031 31.9275C51.7021 32.4953 51.6901 33.2497 51.2733 33.8047Z" fill="#DBB454"/>
<path d="M24.8215 33.2219C24.4822 33.2219 24.207 32.9468 24.207 32.6074C24.207 32.2681 24.4822 31.9929 24.8215 31.9929C25.1609 31.9929 25.436 32.2681 25.436 32.6074C25.436 32.9469 25.161 33.2219 24.8215 33.2219Z" fill="#DBB454"/>
</g>
<circle opacity="0.5" cx="35" cy="35" r="34.7131" stroke="#DBB454" stroke-width="0.57377"/>
<defs>
<clipPath id="clip0_1_500">
<rect width="42" height="42" fill="white" transform="translate(14 15.4)"/>
</clipPath>
</defs>
</svg>
