<svg width="70" height="70" viewBox="0 0 70 70" fill="none" xmlns="http://www.w3.org/2000/svg">
<path d="M31.4635 46.4438C31.7843 46.4457 32.1024 46.3841 32.3993 46.2626C32.6963 46.1411 32.9663 45.9621 33.1939 45.7359C33.4214 45.5096 33.602 45.2407 33.7252 44.9444C33.8484 44.6482 33.9118 44.3305 33.9118 44.0096C33.9118 43.6888 33.8484 43.3711 33.7252 43.0748C33.602 42.7786 33.4214 42.5096 33.1939 42.2834C32.9663 42.0572 32.6963 41.8782 32.3993 41.7567C32.1024 41.6352 31.7843 41.5736 31.4635 41.5755H29.6417C29.5112 41.5755 29.386 41.6273 29.2937 41.7196C29.2014 41.8119 29.1496 41.9371 29.1496 42.0677V45.4594H28.3115C28.2469 45.4594 28.1829 45.4721 28.1232 45.4969C28.0635 45.5216 28.0092 45.5579 27.9635 45.6036C27.9178 45.6493 27.8815 45.7035 27.8568 45.7632C27.8321 45.823 27.8193 45.887 27.8193 45.9516C27.8193 46.0162 27.8321 46.0802 27.8568 46.14C27.8815 46.1997 27.9178 46.2539 27.9635 46.2996C28.0092 46.3453 28.0635 46.3816 28.1232 46.4063C28.1829 46.4311 28.2469 46.4438 28.3115 46.4438H29.1496V47.1808H28.3115C28.181 47.1808 28.0558 47.2327 27.9635 47.325C27.8712 47.4173 27.8193 47.5425 27.8193 47.673C27.8193 47.8036 27.8712 47.9288 27.9635 48.0211C28.0558 48.1134 28.181 48.1652 28.3115 48.1652H29.1496V49.4505C29.1496 49.581 29.2014 49.7062 29.2937 49.7985C29.386 49.8908 29.5112 49.9427 29.6417 49.9427C29.7723 49.9427 29.8975 49.8908 29.9898 49.7985C30.0821 49.7062 30.1339 49.581 30.1339 49.4505V48.1652H32.7381C32.8686 48.1652 32.9938 48.1134 33.0861 48.0211C33.1784 47.9288 33.2303 47.8036 33.2303 47.673C33.2303 47.5425 33.1784 47.4173 33.0861 47.325C32.9938 47.2327 32.8686 47.1808 32.7381 47.1808H30.1339V46.4438H31.4635ZM30.1339 42.5599H31.4635C31.6548 42.5584 31.8445 42.5949 32.0217 42.6671C32.1988 42.7393 32.3599 42.8458 32.4957 42.9806C32.6315 43.1154 32.7393 43.2757 32.8128 43.4523C32.8864 43.6289 32.9242 43.8183 32.9242 44.0096C32.9242 44.2009 32.8864 44.3904 32.8128 44.567C32.7393 44.7436 32.6315 44.9039 32.4957 45.0387C32.3599 45.1734 32.1988 45.28 32.0217 45.3522C31.8445 45.4244 31.6548 45.4609 31.4635 45.4594H30.1339V42.5599Z" fill="#DBB454"/>
<path d="M20.8261 20.3624C20.9271 20.4451 21.0568 20.4843 21.1867 20.4713C21.3166 20.4584 21.436 20.3944 21.5187 20.2934C21.5773 20.2217 21.7787 20.0449 22.1611 19.8369C22.2181 19.8065 22.2686 19.7651 22.3096 19.7152C22.3506 19.6652 22.3814 19.6077 22.4002 19.5458C22.419 19.484 22.4254 19.419 22.4191 19.3547C22.4128 19.2904 22.3939 19.2279 22.3635 19.1709C22.333 19.1139 22.2916 19.0634 22.2417 19.0224C22.1917 18.9814 22.1342 18.9506 22.0724 18.9318C22.0105 18.913 21.9456 18.9066 21.8812 18.9129C21.8169 18.9192 21.7545 18.9381 21.6974 18.9685L21.6908 18.9721C21.122 19.2815 20.8616 19.542 20.757 19.6694C20.7161 19.7194 20.6853 19.777 20.6666 19.8388C20.6479 19.9007 20.6415 19.9656 20.6479 20.03C20.6543 20.0943 20.6733 20.1567 20.7038 20.2137C20.7343 20.2707 20.7757 20.3211 20.8257 20.3621L20.8261 20.3624Z" fill="#DBB454"/>
<path d="M23.7045 19.2024C23.7501 19.2023 23.7956 19.196 23.8395 19.1834C25.2382 18.7853 26.9805 18.566 28.7457 18.566C28.8762 18.566 29.0014 18.5142 29.0937 18.4219C29.186 18.3296 29.2379 18.2044 29.2379 18.0739C29.2379 17.9433 29.186 17.8181 29.0937 17.7258C29.0014 17.6335 28.8762 17.5817 28.7457 17.5817C26.8651 17.5817 25.0754 17.8082 23.57 18.2366C23.4557 18.269 23.3569 18.3416 23.2919 18.4412C23.227 18.5407 23.2002 18.6603 23.2166 18.778C23.233 18.8957 23.2914 19.0035 23.3811 19.0815C23.4708 19.1595 23.5856 19.2024 23.7045 19.2024Z" fill="#DBB454"/>
<path d="M31.2974 38.7267C30.1942 38.6746 29.0937 38.876 28.0804 39.3155C27.0671 39.7549 26.1681 40.4208 25.4522 41.2619C24.7364 42.1029 24.2228 43.0969 23.9509 44.1673C23.6791 45.2378 23.6561 46.3564 23.8839 47.4371C24.1116 48.5178 24.584 49.532 25.2648 50.4017C25.9455 51.2714 26.8166 51.9735 27.8109 52.4542C28.8053 52.9348 29.8967 53.1812 31.0011 53.1744C32.1055 53.1675 33.1937 52.9077 34.1821 52.4148C34.2527 52.3789 34.3137 52.3264 34.3597 52.2618C34.4057 52.1973 34.4354 52.1225 34.4463 52.044C34.4573 51.9655 34.4491 51.8855 34.4225 51.8109C34.3958 51.7362 34.3516 51.6691 34.2934 51.6152C34.2191 51.5466 34.1255 51.5024 34.0253 51.4886C33.9251 51.4747 33.8231 51.4918 33.7329 51.5377C32.3989 52.1995 30.8722 52.3628 29.4284 51.9982C27.9845 51.6335 26.7185 50.7649 25.8587 49.549C24.9988 48.3331 24.6018 46.85 24.7392 45.3672C24.8766 43.8843 25.5393 42.4994 26.6079 41.4622C27.6765 40.425 29.0805 39.8038 30.5668 39.7106C32.0531 39.6174 33.5237 40.0584 34.7135 40.9541C35.9032 41.8497 36.7337 43.1411 37.0552 44.5951C37.3767 46.0492 37.168 47.5703 36.4668 48.884C36.4156 48.9775 36.3969 49.0852 36.4136 49.1904C36.4303 49.2956 36.4814 49.3923 36.5589 49.4653L36.5807 49.4856C36.6343 49.5354 36.6986 49.5722 36.7687 49.5933C36.8388 49.6143 36.9127 49.619 36.9849 49.607C37.0571 49.5949 37.1255 49.5665 37.185 49.5239C37.2445 49.4812 37.2934 49.4255 37.3279 49.361C37.9053 48.2853 38.2007 47.0809 38.1865 45.8601C38.1723 44.6393 37.8489 43.442 37.2467 42.38C36.6445 41.318 35.783 40.4259 34.7426 39.7871C33.7022 39.1482 32.5169 38.7834 31.2974 38.7267Z" fill="#DBB454"/>
<path d="M49.6774 35.2653C47.7933 34.5117 45.299 34.0966 42.6536 34.0966C41.4002 34.0943 40.1487 34.1935 38.9114 34.3935V19.8929C38.9114 18.6444 37.7952 17.5103 35.7683 16.6996C33.8843 15.946 31.39 15.5309 28.7447 15.5309C26.0995 15.5309 23.6052 15.946 21.7212 16.6996C19.6943 17.5103 18.5781 18.6444 18.5781 19.8929V43.1116C18.5781 44.2048 19.4484 45.2237 21.0369 46.002C21.0464 47.8591 21.5771 49.6762 22.5686 51.2464C23.5601 52.8166 24.9727 54.0768 26.6453 54.8836C28.318 55.6904 30.1836 56.0112 32.0297 55.8097C33.8758 55.6081 35.6282 54.8922 37.0874 53.7435C38.7358 54.1926 40.6536 54.4299 42.6537 54.4299C45.2991 54.4299 47.7934 54.0149 49.6775 53.2612C51.7042 52.4506 52.8204 51.3164 52.8204 50.0679V38.4586C52.8204 37.2101 51.7042 36.0759 49.6774 35.2653ZM22.0867 17.6135C23.8572 16.9053 26.2218 16.5153 28.7448 16.5153C31.2679 16.5153 33.6323 16.9053 35.4029 17.6135C37.007 18.2552 37.9271 19.086 37.9271 19.8929C37.9271 20.6998 37.007 21.5306 35.4029 22.1726C33.6323 22.8808 31.2678 23.2709 28.7448 23.2709C26.2219 23.2709 23.8572 22.8805 22.0867 22.1726C20.4825 21.5306 19.5625 20.6998 19.5625 19.8929C19.5625 19.086 20.4825 18.2552 22.0867 17.6135ZM19.5625 25.6885C19.8768 25.9676 20.2207 26.2115 20.5879 26.416C20.6434 26.4507 20.7053 26.4739 20.7699 26.4844C20.8346 26.4948 20.9006 26.4922 20.9643 26.4768C21.0279 26.4613 21.0878 26.4333 21.1404 26.3944C21.1931 26.3555 21.2374 26.3064 21.2708 26.2501C21.3043 26.1938 21.3261 26.1314 21.3351 26.0666C21.344 26.0017 21.34 25.9357 21.3231 25.8725C21.3062 25.8092 21.2769 25.75 21.2368 25.6982C21.1967 25.6465 21.1466 25.6032 21.0896 25.5711C21.0836 25.5676 21.0775 25.5641 21.0714 25.5608C20.1009 25.0112 19.5625 24.3803 19.5625 23.7632V21.8191C20.0867 22.294 20.8119 22.7229 21.7211 23.0865C23.6052 23.8402 26.0995 24.2552 28.7448 24.2552C31.3902 24.2552 33.8844 23.8402 35.7684 23.0865C36.6777 22.7229 37.4029 22.294 37.9271 21.8191V23.7632C37.9271 24.5702 37.007 25.401 35.4029 26.0426C33.6324 26.7508 31.2678 27.1408 28.7448 27.1408C27.4946 27.1445 26.2464 27.0425 25.0133 26.836C24.9434 26.8236 24.8716 26.8267 24.803 26.845C24.7343 26.8632 24.6706 26.8963 24.6161 26.9419C24.5616 26.9874 24.5177 27.0444 24.4876 27.1087C24.4574 27.173 24.4417 27.2431 24.4416 27.3141V27.3263C24.4415 27.441 24.482 27.552 24.5559 27.6397C24.6297 27.7274 24.7322 27.7861 24.8452 27.8055C26.1338 28.0218 27.4383 28.1289 28.7448 28.1255C31.3901 28.1255 33.8845 27.7104 35.7684 26.9569C36.6777 26.5931 37.4029 26.1643 37.9271 25.6893V27.6334C37.9271 28.4403 37.007 29.2711 35.4029 29.9128C33.6323 30.621 31.2678 31.0111 28.7448 31.0111C26.2219 31.0111 23.8571 30.6211 22.0867 29.9129C20.4825 29.2706 19.5625 28.4401 19.5625 27.6325V25.6885ZM19.5625 29.5584C20.0867 30.0334 20.8119 30.4623 21.7211 30.8259C23.605 31.5794 26.0994 31.9945 28.7448 31.9945C31.3903 31.9945 33.8844 31.5794 35.7684 30.8258C36.6777 30.4621 37.4029 30.0332 37.9271 29.5582V31.5024C37.9271 32.3092 37.007 33.14 35.4029 33.7817C33.6323 34.4899 31.2678 34.8799 28.7448 34.8799C26.2219 34.8799 23.8572 34.4899 22.0867 33.7817C20.4825 33.1402 19.5625 32.3091 19.5625 31.5023V29.5584ZM19.5625 33.4281C20.0867 33.903 20.8119 34.3319 21.7211 34.6956C23.6052 35.4492 26.0995 35.8642 28.7448 35.8642C31.3902 35.8642 33.8844 35.4492 35.7684 34.6956C36.6777 34.3319 37.4029 33.903 37.9271 33.4281V34.5813C36.1045 34.9797 34.5907 35.6057 33.6345 36.3913C32.0773 35.9553 30.4371 35.907 28.8569 36.2504C27.2767 36.5939 25.8046 37.3188 24.5689 38.3619C21.5645 37.7699 19.5625 36.5806 19.5625 35.372V33.4281ZM19.5625 37.2911C20.4375 38.0859 21.8637 38.7455 23.7067 39.1819C23.0557 39.8789 22.5082 40.6658 22.0809 41.5184C20.4955 40.8826 19.5625 40.0465 19.5625 39.2418V37.2911ZM21.0895 44.9173C20.1116 44.3642 19.5627 43.7244 19.5627 43.1116V41.1722C20.0795 41.6387 20.7919 42.0598 21.6845 42.42C21.378 43.2229 21.178 44.0624 21.0895 44.9173ZM37.2233 51.5152C37.131 51.4229 37.0058 51.3711 36.8753 51.3711C36.7447 51.3711 36.6196 51.4229 36.5273 51.5152C36.435 51.6076 36.3831 51.7328 36.3831 51.8633C36.3831 51.9938 36.435 52.119 36.5273 52.2113L36.9172 52.6011C35.407 53.959 33.4779 54.7597 31.4501 54.8703V54.3145C31.4501 54.184 31.3982 54.0588 31.3059 53.9665C31.2136 53.8742 31.0884 53.8223 30.9579 53.8223C30.8273 53.8223 30.7021 53.8742 30.6098 53.9665C30.5175 54.0588 30.4657 54.184 30.4657 54.3145V54.8703C28.438 54.7597 26.509 53.9592 24.9989 52.6015L25.3888 52.2117C25.4811 52.1193 25.5329 51.9941 25.5329 51.8636C25.5329 51.733 25.4811 51.6078 25.3888 51.5155C25.2965 51.4232 25.1713 51.3714 25.0407 51.3714C24.9102 51.3714 24.785 51.4232 24.6927 51.5155L24.3028 51.9054C22.9451 50.3953 22.1446 48.4663 22.034 46.4386H22.5899C22.7204 46.4386 22.8456 46.3868 22.9379 46.2945C23.0302 46.2022 23.0821 46.077 23.0821 45.9464C23.0821 45.8159 23.0302 45.6907 22.9379 45.5984C22.8456 45.5061 22.7204 45.4542 22.5899 45.4542H22.0343C22.1449 43.4265 22.9455 41.4976 24.3032 39.9874L24.6931 40.3774C24.7854 40.4697 24.9106 40.5216 25.0411 40.5216C25.1716 40.5216 25.2968 40.4698 25.3891 40.3775C25.4814 40.2852 25.5333 40.16 25.5333 40.0294C25.5333 39.8989 25.4815 39.7737 25.3892 39.6814L24.9992 39.2914C26.5093 37.9338 28.4381 37.1332 30.4657 37.0224V37.5781C30.4657 37.7086 30.5175 37.8338 30.6098 37.9261C30.7021 38.0184 30.8273 38.0703 30.9579 38.0703C31.0884 38.0703 31.2136 38.0184 31.3059 37.9261C31.3982 37.8338 31.4501 37.7086 31.4501 37.5781V37.0223C33.4778 37.1328 35.4067 37.9334 36.9169 39.2911L36.5269 39.681C36.4812 39.7268 36.4449 39.781 36.4202 39.8407C36.3955 39.9005 36.3827 39.9645 36.3827 40.0291C36.3828 40.0937 36.3955 40.1577 36.4202 40.2174C36.445 40.2772 36.4812 40.3314 36.5269 40.3771C36.5726 40.4228 36.6269 40.4591 36.6866 40.4838C36.7463 40.5085 36.8103 40.5213 36.875 40.5213C36.9396 40.5213 37.0036 40.5085 37.0633 40.4838C37.123 40.459 37.1773 40.4228 37.223 40.3771L37.6129 39.9871C38.9706 41.4972 39.7712 43.4262 39.8817 45.4539H39.326C39.1954 45.4539 39.0702 45.5058 38.9779 45.5981C38.8856 45.6904 38.8338 45.8156 38.8338 45.9461C38.8338 46.0766 38.8856 46.2018 38.9779 46.2941C39.0702 46.3864 39.1954 46.4383 39.326 46.4383H39.8817C39.7712 48.466 38.9706 50.395 37.6129 51.9051L37.2233 51.5152ZM51.8361 50.0678C51.8361 50.8747 50.916 51.7055 49.3119 52.3472C47.5413 53.0553 45.1768 53.4454 42.6537 53.4454C41.0817 53.4544 39.5134 53.2888 37.9779 52.9516C38.7255 52.2026 39.3492 51.3394 39.8254 50.3943C40.7445 50.5043 41.6692 50.5597 42.5948 50.5603C45.2401 50.5603 47.7934 50.1451 49.6775 49.3915C50.5866 49.0279 51.3119 48.5989 51.8361 48.124V50.0678ZM51.8361 46.1979C51.8361 47.0049 50.916 47.8357 49.3119 48.4774C47.5413 49.1856 45.1768 49.5756 42.6509 49.5756C41.8456 49.5794 41.0407 49.5378 40.2401 49.4509C40.5835 48.5442 40.7912 47.5917 40.8564 46.6243C41.4441 46.6678 42.045 46.69 42.623 46.69C45.2683 46.69 47.7932 46.2749 49.6777 45.5213C50.5869 45.1576 51.3121 44.7288 51.8363 44.2538L51.8361 46.1979ZM51.8361 42.3283C51.8361 43.1351 50.916 43.9659 49.3119 44.6076C47.5413 45.3158 45.1768 45.7058 42.6524 45.7058C42.0618 45.7066 41.466 45.6837 40.875 45.6382C40.845 44.6406 40.6639 43.6533 40.3378 42.7101C41.0905 42.7831 41.8615 42.8205 42.598 42.8205C45.2433 42.8205 47.7934 42.4054 49.6773 41.6518C50.5865 41.2881 51.3117 40.8592 51.8359 40.3842L51.8361 42.3283ZM49.3119 40.7379C47.5413 41.4462 45.1768 41.8363 42.6509 41.8363C41.7353 41.8407 40.8203 41.7863 39.9116 41.6733C38.8539 39.47 37.0247 37.7312 34.7706 36.7866C36.4404 35.7477 39.4432 35.081 42.6538 35.081C45.1768 35.081 47.5414 35.471 49.312 36.1792C50.9161 36.8209 51.8361 37.6517 51.8361 38.4586C51.8361 39.2656 50.9161 40.0965 49.3119 40.7379Z" fill="#DBB454"/>
<circle opacity="0.5" cx="35" cy="35" r="34.7131" stroke="#DBB454" stroke-width="0.57377"/>
</svg>
