<svg width="89" height="89" viewBox="0 0 89 89" fill="none" xmlns="http://www.w3.org/2000/svg">
<path d="M60.7033 54.6851C60.3465 54.6851 60 54.5005 59.8092 54.1694L57.1929 49.6392C56.9083 49.1462 57.0774 48.5151 57.5703 48.2305C58.0622 47.9448 58.6934 48.115 58.979 48.6079L61.5943 53.1372C61.8789 53.6301 61.7098 54.2612 61.2168 54.5458C61.0549 54.6407 60.8776 54.6851 60.7033 54.6851Z" fill="#DBB454"/>
<path d="M58.086 50.1553H52.8555C52.2862 50.1553 51.8242 49.6933 51.8242 49.124C51.8242 48.5548 52.2862 48.0928 52.8555 48.0928H58.086C58.6552 48.0928 59.1172 48.5548 59.1172 49.124C59.1172 49.6933 58.6562 50.1553 58.086 50.1553Z" fill="#DBB454"/>
<path d="M48.0948 67.4644C47.738 67.4644 47.3915 67.2798 47.2007 66.9487L41.0132 56.2309C40.7286 55.737 40.8977 55.1069 41.3906 54.8223C41.8846 54.5366 42.5147 54.7068 42.7993 55.1997L48.9868 65.9175C49.2715 66.4114 49.1023 67.0415 48.6094 67.3262C48.4465 67.42 48.2691 67.4644 48.0948 67.4644Z" fill="#DBB454"/>
<path d="M60.4688 67.4648H48.0938C47.5245 67.4648 47.0625 67.0028 47.0625 66.4336C47.0625 65.8643 47.5245 65.4023 48.0938 65.4023H60.4688C61.038 65.4023 61.5 65.8643 61.5 66.4336C61.5 67.0028 61.038 67.4648 60.4688 67.4648Z" fill="#DBB454"/>
<path d="M63.0479 71.9302C62.6911 71.9302 62.3446 71.7456 62.1538 71.4146L59.5757 66.9492C59.2911 66.4553 59.4602 65.8252 59.9531 65.5406C60.4461 65.2559 61.0762 65.4251 61.3618 65.918L63.94 70.3833C64.2246 70.8773 64.0555 71.5074 63.5625 71.792C63.4006 71.8858 63.2222 71.9302 63.0479 71.9302Z" fill="#DBB454"/>
<path d="M45.5148 71.9309C45.3406 71.9309 45.1632 71.8865 45.0002 71.7927C44.5063 71.508 44.3382 70.8769 44.6228 70.384L47.2009 65.9187C47.4856 65.4247 48.1146 65.2556 48.6096 65.5412C49.1036 65.8259 49.2717 66.457 48.9871 66.9499L46.4089 71.4152C46.2182 71.7463 45.8717 71.9309 45.5148 71.9309Z" fill="#DBB454"/>
<path d="M71.8125 56.748H66.6562C66.087 56.748 65.625 56.286 65.625 55.7168C65.625 55.1475 66.087 54.6855 66.6562 54.6855H71.8125C72.3818 54.6855 72.8438 55.1475 72.8438 55.7168C72.8438 56.286 72.3818 56.748 71.8125 56.748Z" fill="#DBB454"/>
<path d="M60.468 67.4644C60.2937 67.4644 60.1163 67.42 59.9534 67.3262C59.4594 67.0415 59.2913 66.4104 59.5759 65.9175L65.7634 55.1997C66.0481 54.7068 66.6771 54.5366 67.1721 54.8223C67.6661 55.1069 67.8342 55.738 67.5496 56.2309L61.3621 66.9487C61.1713 67.2798 60.8248 67.4644 60.468 67.4644Z" fill="#DBB454"/>
<path d="M41.9055 56.7477C41.7312 56.7477 41.5538 56.7034 41.3909 56.6095C40.8969 56.3249 40.7288 55.6938 41.0134 55.2009L47.2009 44.4841C47.4856 43.9901 48.1146 43.821 48.6096 44.1067C49.1036 44.3913 49.2717 45.0224 48.9871 45.5154L42.7996 56.2321C42.6088 56.5621 42.2623 56.7477 41.9055 56.7477Z" fill="#DBB454"/>
<path d="M60.4688 46.0303H48.0938C47.5245 46.0303 47.0625 45.5683 47.0625 44.999C47.0625 44.4298 47.5245 43.9678 48.0938 43.9678H60.4688C61.038 43.9678 61.5 44.4298 61.5 44.999C61.5 45.5683 61.038 46.0303 60.4688 46.0303Z" fill="#DBB454"/>
<path d="M66.6573 56.7495C66.3005 56.7495 65.954 56.5649 65.7632 56.2338L59.5757 45.5171C59.2911 45.0231 59.4602 44.393 59.9531 44.1084C60.4461 43.8227 61.0762 43.9929 61.3618 44.4858L67.5493 55.2026C67.834 55.6966 67.6648 56.3266 67.1719 56.6113C67.01 56.7051 66.8316 56.7495 66.6573 56.7495Z" fill="#DBB454"/>
<path d="M42.1436 43.9682C41.7868 43.9682 41.4403 43.7836 41.2496 43.4526L38.6343 38.9233C38.3497 38.4304 38.5188 37.7993 39.0117 37.5146C39.5036 37.229 40.1348 37.3991 40.4204 37.8921L43.0357 42.4213C43.3203 42.9143 43.1512 43.5454 42.6582 43.83C42.4953 43.9249 42.3179 43.9682 42.1436 43.9682Z" fill="#DBB454"/>
<path d="M39.5233 39.4395H34.2928C33.7236 39.4395 33.2616 38.9775 33.2616 38.4082C33.2616 37.839 33.7236 37.377 34.2928 37.377H39.5233C40.0926 37.377 40.5546 37.839 40.5546 38.4082C40.5546 38.9775 40.0936 39.4395 39.5233 39.4395Z" fill="#DBB454"/>
<path d="M60.7061 33.25C60.3493 33.25 60.0028 33.0654 59.8121 32.7344L57.1968 28.2041C56.9122 27.7102 57.0813 27.0801 57.5742 26.7954C58.0661 26.5108 58.6973 26.6799 58.9829 27.1729L61.5982 31.7032C61.8828 32.1971 61.7137 32.8272 61.2207 33.1118C61.0578 33.2057 60.8804 33.25 60.7061 33.25Z" fill="#DBB454"/>
<path d="M58.086 28.7207H52.8555C52.2862 28.7207 51.8242 28.2587 51.8242 27.6895C51.8242 27.1202 52.2862 26.6582 52.8555 26.6582H58.086C58.6552 26.6582 59.1172 27.1202 59.1172 27.6895C59.1172 28.2587 58.6562 28.7207 58.086 28.7207Z" fill="#DBB454"/>
<path d="M45.7126 41.9043C45.3558 41.9043 45.0093 41.7197 44.8185 41.3886L41.0132 34.7969C40.7286 34.3029 40.8977 33.6728 41.3906 33.3882C41.8836 33.1036 42.5147 33.2727 42.7993 33.7656L46.6046 40.3574C46.8893 40.8514 46.7201 41.4815 46.2272 41.7661C46.0653 41.861 45.8879 41.9043 45.7126 41.9043Z" fill="#DBB454"/>
<path d="M60.468 46.0319C60.2937 46.0319 60.1163 45.9876 59.9534 45.8937C59.4594 45.6091 59.2913 44.978 59.5759 44.485L65.7634 33.7683C66.0481 33.2743 66.6771 33.1052 67.1721 33.3908C67.6661 33.6755 67.8342 34.3066 67.5496 34.7995L61.3621 45.5163C61.1713 45.8473 60.8248 46.0319 60.468 46.0319Z" fill="#DBB454"/>
<path d="M60.4688 46.0303H48.0938C47.5245 46.0303 47.0625 45.5683 47.0625 44.999C47.0625 44.4298 47.5245 43.9678 48.0938 43.9678H60.4688C61.038 43.9678 61.5 44.4298 61.5 44.999C61.5 45.5683 61.038 46.0303 60.4688 46.0303Z" fill="#DBB454"/>
<path d="M41.9055 35.3146C41.7312 35.3146 41.5538 35.2703 41.3909 35.1765C40.8969 34.8918 40.7288 34.2607 41.0134 33.7678L47.2009 23.05C47.4856 22.556 48.1146 22.3859 48.6096 22.6726C49.1036 22.9572 49.2717 23.5883 48.9871 24.0812L42.7996 34.799C42.6088 35.1301 42.2623 35.3146 41.9055 35.3146Z" fill="#DBB454"/>
<path d="M60.4688 24.5977H48.0938C47.5245 24.5977 47.0625 24.1357 47.0625 23.5664C47.0625 22.9972 47.5245 22.5352 48.0938 22.5352H60.4688C61.038 22.5352 61.5 22.9972 61.5 23.5664C61.5 24.1357 61.038 24.5977 60.4688 24.5977Z" fill="#DBB454"/>
<path d="M66.6573 35.3152C66.3005 35.3152 65.954 35.1306 65.7632 34.7995L59.5757 24.0818C59.2911 23.5878 59.4602 22.9577 59.9531 22.6731C60.4471 22.3874 61.0762 22.5565 61.3618 23.0505L67.5493 33.7683C67.834 34.2623 67.6648 34.8924 67.1719 35.177C67.009 35.2708 66.8316 35.3152 66.6573 35.3152Z" fill="#DBB454"/>
<path d="M41.9055 56.7477C41.7312 56.7477 41.5538 56.7034 41.3909 56.6095C40.8969 56.3249 40.7288 55.6938 41.0134 55.2009L47.2009 44.4841C47.4856 43.9901 48.1146 43.821 48.6096 44.1067C49.1036 44.3913 49.2717 45.0224 48.9871 45.5154L42.7996 56.2321C42.6088 56.5621 42.2623 56.7477 41.9055 56.7477Z" fill="#DBB454"/>
<path d="M41.9062 56.748H29.5312C28.962 56.748 28.5 56.286 28.5 55.7168C28.5 55.1475 28.962 54.6855 29.5312 54.6855H41.9062C42.4755 54.6855 42.9375 55.1475 42.9375 55.7168C42.9375 56.286 42.4755 56.748 41.9062 56.748Z" fill="#DBB454"/>
<path d="M29.5323 56.7495C29.1755 56.7495 28.829 56.5649 28.6382 56.2338L22.4507 45.5171C22.1661 45.0231 22.3352 44.393 22.8281 44.1084C23.3211 43.8227 23.9512 43.9929 24.2368 44.4858L30.4243 55.2026C30.709 55.6966 30.5398 56.3266 30.0469 56.6113C29.885 56.7051 29.7066 56.7495 29.5323 56.7495Z" fill="#DBB454"/>
<path d="M23.343 46.0319C23.1687 46.0319 22.9913 45.9876 22.8284 45.8937C22.3344 45.6091 22.1663 44.978 22.4509 44.485L28.6384 33.7683C28.9231 33.2743 29.5521 33.1052 30.0471 33.3908C30.5411 33.6755 30.7092 34.3066 30.4246 34.7995L24.2371 45.5163C24.0463 45.8473 23.6998 46.0319 23.343 46.0319Z" fill="#DBB454"/>
<path d="M41.9062 35.3145H29.5312C28.962 35.3145 28.5 34.8525 28.5 34.2832C28.5 33.714 28.962 33.252 29.5312 33.252H41.9062C42.4755 33.252 42.9375 33.714 42.9375 34.2832C42.9375 34.8525 42.4755 35.3145 41.9062 35.3145Z" fill="#DBB454"/>
<path d="M44.4854 61.2129C44.1286 61.2129 43.7821 61.0283 43.5913 60.6973L41.0132 56.2309C40.7286 55.737 40.8977 55.1069 41.3906 54.8223C41.8846 54.5366 42.5147 54.7068 42.7993 55.1997L45.3775 59.666C45.6621 60.16 45.493 60.7901 45 61.0747C44.8371 61.1686 44.6597 61.2129 44.4854 61.2129Z" fill="#DBB454"/>
<path d="M26.9521 61.2129C26.7778 61.2129 26.6005 61.1686 26.4375 61.0747C25.9446 60.7901 25.7755 60.159 26.0601 59.666L28.6382 55.1997C28.9228 54.7068 29.5519 54.5366 30.0469 54.8223C30.5398 55.1069 30.709 55.738 30.4243 56.2309L27.8462 60.6973C27.6554 61.0283 27.3089 61.2129 26.9521 61.2129Z" fill="#DBB454"/>
<path d="M29.5323 35.315C29.1755 35.315 28.829 35.1304 28.6382 34.7994L26.0601 30.333C25.7755 29.8391 25.9446 29.209 26.4375 28.9243C26.9315 28.6397 27.5606 28.8088 27.8462 29.3018L30.4243 33.7681C30.709 34.2621 30.5398 34.8922 30.0469 35.1768C29.884 35.2707 29.7066 35.315 29.5323 35.315Z" fill="#DBB454"/>
<path d="M63.0479 50.498C62.6911 50.498 62.3446 50.3134 62.1538 49.9824L59.5757 45.5171C59.2911 45.0231 59.4602 44.393 59.9531 44.1084C60.4461 43.8227 61.0762 43.9929 61.3618 44.4858L63.94 48.9511C64.2246 49.4451 64.0555 50.0752 63.5625 50.3598C63.4006 50.4537 63.2222 50.498 63.0479 50.498Z" fill="#DBB454"/>
<path d="M48.095 24.5976C47.7382 24.5976 47.3917 24.413 47.2009 24.082L44.6228 19.6167C44.3382 19.1227 44.5063 18.4926 45.0002 18.208C45.4932 17.9223 46.1243 18.0925 46.4089 18.5854L48.9871 23.0508C49.2717 23.5447 49.1026 24.1748 48.6096 24.4594C48.4477 24.5533 48.2693 24.5976 48.095 24.5976Z" fill="#DBB454"/>
<path d="M60.468 24.5952C60.2937 24.5952 60.1163 24.5508 59.9534 24.457C59.4594 24.1723 59.2913 23.5412 59.5759 23.0483L62.1541 18.583C62.4397 18.09 63.0667 17.9188 63.5627 18.2055C64.0567 18.4902 64.2248 19.1213 63.9402 19.6142L61.3621 24.0795C61.1713 24.4106 60.8248 24.5952 60.468 24.5952Z" fill="#DBB454"/>
<path d="M23.3438 46.0303H18.1875C17.6183 46.0303 17.1562 45.5683 17.1562 44.999C17.1562 44.4298 17.6183 43.9678 18.1875 43.9678H23.3438C23.913 43.9678 24.375 44.4298 24.375 44.999C24.375 45.5683 23.913 46.0303 23.3438 46.0303Z" fill="#DBB454"/>
<path d="M71.8125 35.3145H66.6562C66.087 35.3145 65.625 34.8525 65.625 34.2832C65.625 33.714 66.087 33.252 66.6562 33.252H71.8125C72.3818 33.252 72.8438 33.714 72.8438 34.2832C72.8438 34.8525 72.3818 35.3145 71.8125 35.3145Z" fill="#DBB454"/>
<circle opacity="0.5" cx="44.5" cy="44.5" r="44.0902" stroke="#DBB454" stroke-width="0.819672"/>
</svg>
