<svg width="100" height="100" viewBox="0 0 100 100" fill="none" xmlns="http://www.w3.org/2000/svg">
<circle opacity="0.5" cx="50" cy="50" r="49.5902" stroke="#DBB454" stroke-width="0.819672"/>
<g clip-path="url(#clip0_36_93)">
<path d="M59.9512 50.4785C60.6055 50.4785 61.1328 49.9512 61.1328 49.2969V43.0469C61.1328 42.3926 60.6055 41.8652 59.9512 41.8652H44.1211C43.4668 41.8652 42.9395 42.3926 42.9395 43.0469V49.2969C42.9395 49.9512 43.4668 50.4785 44.1211 50.4785H59.9512ZM44.0039 49.2969V43.0469C44.0039 42.9785 44.0527 42.9297 44.1211 42.9297H59.9512C60.0195 42.9297 60.0684 42.9785 60.0684 43.0469V49.2969C60.0684 49.3652 60.0195 49.4141 59.9512 49.4141H44.1211C44.0625 49.4141 44.0039 49.3652 44.0039 49.2969ZM47.0605 53.1641H44.6484C44.043 53.1641 43.5449 53.6523 43.5449 54.2676V56.6797C43.5449 57.2852 44.0332 57.7832 44.6484 57.7832H47.0605C47.666 57.7832 48.1641 57.2949 48.1641 56.6797V54.2676C48.1641 53.6621 47.666 53.1641 47.0605 53.1641ZM47.0996 56.6797C47.0996 56.6992 47.0898 56.709 47.0703 56.709L44.6191 56.6797L44.6484 54.2285L47.0996 54.2578V56.6797ZM53.2422 53.1641H50.8301C50.2246 53.1641 49.7266 53.6523 49.7266 54.2676V56.6797C49.7266 57.2852 50.2148 57.7832 50.8301 57.7832H53.2422C53.8477 57.7832 54.3457 57.2949 54.3457 56.6797V54.2676C54.3457 53.6621 53.8477 53.1641 53.2422 53.1641ZM53.2812 56.6797C53.2812 56.6992 53.2617 56.709 53.252 56.709L50.8008 56.6797L50.8301 54.2285L53.2812 54.2578V56.6797ZM47.0605 58.8574H44.6484C44.043 58.8574 43.5449 59.3457 43.5449 59.9609V62.373C43.5449 62.9785 44.0332 63.4766 44.6484 63.4766H47.0605C47.666 63.4766 48.1641 62.9883 48.1641 62.373V59.9609C48.1641 59.3555 47.666 58.8574 47.0605 58.8574ZM47.0996 62.373C47.0996 62.3926 47.0898 62.4023 47.0703 62.4023L44.6191 62.373L44.6484 59.9219L47.0996 59.9512V62.373ZM53.2422 58.8574H50.8301C50.2246 58.8574 49.7266 59.3457 49.7266 59.9609V62.373C49.7266 62.9785 50.2148 63.4766 50.8301 63.4766H53.2422C53.8477 63.4766 54.3457 62.9883 54.3457 62.373V59.9609C54.3457 59.3555 53.8477 58.8574 53.2422 58.8574ZM53.2812 62.373C53.2812 62.3926 53.2617 62.4023 53.252 62.4023L50.8008 62.373L50.8301 59.9219L53.2812 59.9512V62.373ZM47.0605 64.5508H44.6484C44.043 64.5508 43.5449 65.0391 43.5449 65.6543V68.0664C43.5449 68.6719 44.0332 69.1699 44.6484 69.1699H47.0605C47.666 69.1699 48.1641 68.6816 48.1641 68.0664V65.6543C48.1641 65.0488 47.666 64.5508 47.0605 64.5508ZM47.0996 68.0664C47.0996 68.0859 47.0898 68.0957 47.0703 68.0957L44.6191 68.0664L44.6484 65.6152L47.0996 65.6445V68.0664ZM53.2422 64.5508H50.8301C50.2246 64.5508 49.7266 65.0391 49.7266 65.6543V68.0664C49.7266 68.6719 50.2148 69.1699 50.8301 69.1699H53.2422C53.8477 69.1699 54.3457 68.6816 54.3457 68.0664V65.6543C54.3457 65.0488 53.8477 64.5508 53.2422 64.5508ZM53.2812 68.0664C53.2812 68.0859 53.2617 68.0957 53.252 68.0957L50.8008 68.0664L50.8301 65.6152L53.2812 65.6445V68.0664ZM59.4238 64.5508H57.0117C56.4062 64.5508 55.9082 65.0391 55.9082 65.6543V68.0664C55.9082 68.6719 56.3965 69.1699 57.0117 69.1699H59.4238C60.0293 69.1699 60.5273 68.6816 60.5273 68.0664V65.6543C60.5273 65.0488 60.0391 64.5508 59.4238 64.5508ZM59.4629 68.0664C59.4629 68.0859 59.4434 68.0957 59.4336 68.0957L56.9824 68.0664L57.0117 65.6152L59.4629 65.6445V68.0664ZM73.0176 65.0586H70.8301L71.4062 56.1426C71.8457 49.5898 69.3359 43.1543 64.5898 38.7207V37.5488C64.5898 36.3379 63.6035 35.3613 62.4023 35.3613H58.5938V28.5254C58.5938 28.3691 58.5254 28.2227 58.4082 28.125L57.207 27.0703C57.002 26.8945 56.6992 26.8945 56.5039 27.0703L55.6543 27.8223C54.3262 26.6309 54.5801 26.6406 53.2422 27.8223C51.9141 26.6309 52.168 26.6309 50.8398 27.8223C49.5117 26.6309 49.7656 26.6406 48.4375 27.8223L47.5879 27.0703C47.3828 26.8945 47.0801 26.8945 46.8848 27.0703L45.6738 28.125C45.5566 28.2227 45.4883 28.3691 45.4883 28.5254V35.3613H41.6699C40.459 35.3613 39.4824 36.3477 39.4824 37.5488V39.6973H27.1191C26.0059 39.6973 25.0977 40.6055 25.0977 41.7188V55.4297C25.0977 56.543 26.0059 57.4512 27.1191 57.4512H39.4824V70.8691C39.4824 72.0703 40.4688 73.0566 41.6699 73.0566H62.4023C63.2812 73.0566 64.0527 72.5293 64.3945 71.7578H73.0176C74.0625 71.7578 74.9023 70.9082 74.9023 69.873V66.9434C74.9023 65.9082 74.0527 65.0586 73.0176 65.0586ZM39.4824 56.3965H27.1191C26.5918 56.3965 26.1621 55.9668 26.1621 55.4395V41.7285C26.1621 41.2012 26.5918 40.7715 27.1191 40.7715H39.4824V56.3965ZM46.5527 28.7695L47.2266 28.1836L48.0664 28.9258C48.2617 29.1016 48.6035 29.1016 48.7988 28.9258L49.6387 28.1836L50.4687 28.9258C50.6641 29.1016 51.0059 29.1016 51.2012 28.9258L52.0312 28.1836L52.8711 28.9258C53.0664 29.1016 53.4082 29.1016 53.6035 28.9258L54.4434 28.1836L55.2832 28.9258C55.4785 29.1016 55.8203 29.1016 56.0156 28.9258L56.8555 28.1836L57.5293 28.7695V39.1113H46.5527V28.7695ZM63.5254 70.8789C63.5254 71.4941 63.0176 72.002 62.4023 72.002H41.6797C41.0547 72.002 40.5566 71.5039 40.5566 70.8789V37.5586C40.5566 36.9336 41.0645 36.4355 41.6797 36.4355H45.4883V39.1113H44.3652C43.6719 39.1113 43.6621 40.1758 44.3652 40.1758H46.0254H58.0664H59.7168C60.4102 40.166 60.4199 39.1211 59.7168 39.1113H58.5938V36.4355H62.4023C63.0273 36.4355 63.5254 36.9434 63.5254 37.5586C63.4766 37.9297 63.5059 54.1113 63.4961 54.873L61.3965 52.3242C59.5508 50.0098 55.6543 51.2109 55.4199 54.1602C55.3223 55.1562 55.6934 56.1816 56.4453 56.9043C58.0762 58.6133 59.7168 60.3223 61.3477 62.0312C61.6797 63.457 62.4414 64.7168 63.5156 65.6738V70.8789H63.5254ZM64.4043 65.0195C63.3496 64.1602 62.6465 62.998 62.3633 61.6602C62.3438 61.5625 62.2949 61.4746 62.2266 61.3965C60.4883 59.5801 58.75 57.7637 57.002 55.9473C55.1172 53.5547 58.5742 50.6934 60.5762 52.998L63.623 56.6895C63.7695 56.8652 64.0039 56.9238 64.2188 56.8555C64.4336 56.7773 64.5703 56.582 64.5703 56.3574V40.1953C71.9336 48.0469 70.3906 55.3418 69.7656 65.0586H64.4531C64.4336 65.0488 64.4141 65.0293 64.4043 65.0195ZM73.8379 67.8809H69.1992C68.9062 67.8809 68.6621 68.1152 68.6621 68.418C68.6621 68.7207 68.8965 68.9551 69.1992 68.9551H73.8379V69.8926C73.8379 70.3418 73.4668 70.7129 73.0176 70.7129H64.5898V66.1426C64.6289 66.1328 70.2539 66.1523 70.2832 66.1328H73.0078C73.457 66.1328 73.8281 66.5039 73.8281 66.9531V67.8809H73.8379ZM28.5156 46.3281H33.7891C34.1699 46.3281 34.4824 46.0156 34.4824 45.6348V44.0234C34.4824 43.6426 34.1699 43.3301 33.7891 43.3301H28.5156C28.1348 43.3301 27.8223 43.6426 27.8223 44.0234V45.6348C27.8223 46.0156 28.1348 46.3281 28.5156 46.3281ZM28.8867 44.3945H33.4277V45.2637H28.8867V44.3945ZM28.3496 53.3887H35.4102C36.1133 53.3887 36.1035 54.4531 35.4102 54.4531H28.3496C27.6562 54.4531 27.6562 53.3887 28.3496 53.3887ZM28.3496 51.0547H31.875C32.5684 51.0547 32.5684 52.1191 31.875 52.1191H28.3496C27.6562 52.1191 27.6562 51.0645 28.3496 51.0547Z" fill="#DBB454"/>
</g>
<defs>
<clipPath id="clip0_36_93">
<rect width="50" height="50" fill="white" transform="translate(25 25)"/>
</clipPath>
</defs>
</svg>
